<?xml version="1.0" encoding="UTF-8"?>
<svg id="Calque_2" data-name="Calque 2" xmlns="http://www.w3.org/2000/svg" xmlns:xlink="http://www.w3.org/1999/xlink" viewBox="0 0 762.64 841.89">
  <defs>
    <style>
      .cls-1 {
        fill: url(#Dégradé_sans_nom_29);
      }

      .cls-2 {
        fill-rule: evenodd;
      }

      .cls-2, .cls-3 {
        fill: #fff;
      }

      .cls-3 {
        font-family: Montserrat-SemiBold, Montserrat;
        font-size: 50px;
        font-weight: 600;
      }

      .cls-4 {
        fill: #f1f2f2;
      }

      .cls-5 {
        letter-spacing: 0em;
      }

      .cls-6 {
        fill: url(#Dégradé_sans_nom_29-2);
      }

      .cls-7 {
        letter-spacing: -.05em;
      }
    </style>
    <linearGradient id="Dégradé_sans_nom_29" data-name="Dégradé sans nom 29" x1="0" y1="420.94" x2="762.64" y2="420.94" gradientUnits="userSpaceOnUse">
      <stop offset="0" stop-color="#2e3192"/>
      <stop offset=".12" stop-color="#333090"/>
      <stop offset=".28" stop-color="#442e8a"/>
      <stop offset=".46" stop-color="#602a82"/>
      <stop offset=".66" stop-color="#862676"/>
      <stop offset=".87" stop-color="#b72066"/>
      <stop offset="1" stop-color="#da1c5c"/>
    </linearGradient>
    <linearGradient id="Dégradé_sans_nom_29-2" data-name="Dégradé sans nom 29" x1="203.09" y1="456.63" x2="575.98" y2="456.63" xlink:href="#Dégradé_sans_nom_29"/>
  </defs>
  <g id="Background">
    <rect class="cls-1" width="762.64" height="841.89"/>
  </g>
  <g id="Calque_1-2" data-name="Calque 1">
    <g>
      <g>
        <rect class="cls-6" x="203.09" y="270.19" width="372.88" height="372.88" rx="74.69" ry="74.69"/>
        <path class="cls-2" d="M567.1,530.93c.14,.29,.51-2.78,.48-3.04-.07-.6-.86-.95-.96-1.83-.13-1.13,.23-1.88,0-4.26-.18-1.85-1.05-3.7-1.44-6.08-.18-1.11-.02-2.64-.24-4.26,0-.02-.05-.4-.1-.81-.05-.42-.11-.86-.14-1.01-.05-.19-.46-.47-.48-.61-.12-.91,.13-2.14,0-3.04-.16-1.15-.58-1.93-.72-3.04-.04-.28-.24-1.39-.24-1.22-.01-.48,.29-.62,.24-1.22-.14-1.57-.66-4.08-.96-6.69-.3-2.63-.42-4.87-.72-7.91-.08-.79-.47-1.64-.48-1.83-.05-1.03,.3-2.09,.24-3.04-.16-2.44-1.07-6.65-.48-9.73,.14-.74,1.04-.95,1.2-1.83,.02-.11-.03-1.2,0-1.22,.44-.25,2.76,4.47,3.12,5.48,.43,1.19,.72,3.22,1.2,4.87,.13,.44,.12,.59,.24,1.22,0,.04,.23,1.15,.24,1.22,.23,.66,.79,.6,.96,1.22,.31,1.1,.18,2.61,.48,3.65,.26,.92,.69,1.58,.96,2.43,.15,.47,.08,1.29,.24,1.82,.06,.2,.41-.18,.48,0,.08,.21-.07,.98,0,1.22,.54,1.81,1.04,3.56,1.68,4.87,.6-2.47-.13-4.63-.48-6.69-.54-3.32-1.01-6.21-1.68-10.34-.19-1.18-.43-2.23-.72-4.26-.28-1.98-.67-3.73-.96-6.08-.04-.35-.29-.75-.24-1.22,.1-1,.07-.55-.24-2.43-.33-2,.34-3.57,1.44-3.04,1.27,.61,1.61,7.76,2.4,7.3,1.36-.79-.56-7.31-.72-8.52-.29-2.27-.12-4.1-.24-4.87-.08-.48-.35-.76-.48-1.22-.62-2.2-1.07-6.99-1.68-10.34-.71-3.89-1.39-11.36-1.68-16.43,.39-.73,1.12,0,1.68-.61,1.3-1.4,1.75,2.79,3.12,4.26,.26-.16,.29-1.55,.24-2.43-.07-1.22-.41-1.22-.48-1.82-.18-1.49-.21-3.14-.48-4.87-.09-.6-.38-1.07-.48-1.83-.15-1.08-.12-1.62-.24-2.43-.19-1.29-.58-2.5-.72-3.65-.19-1.57-.05-3.32-.24-4.87-.16-1.34-.5-3.35-.72-4.87-.25-1.7-.79-3.82-.72-4.87,.16-2.33,.55,.04,.72-1.22-.02-2.16-.67,.16-.96-2.43-.14-1.27,.42-6.15,.72-7.3,.1-.39,.42-1.35,.72-1.83,.71-1.14,1.87,.19,2.64-1.22,.31-.57,.48-1.7,.72-3.04,.22-1.19,.84-3.17,.48-5.48-.19-1.22-.36-.25-.24-1.82,.06-.75-.56-4.62-.72-6.09-.14-1.3-.09-2.37-.24-3.65-.04-.32-.45-.99-.48-1.22-.07-.56,.06-1.26,0-1.82-.28-2.46-.56-6.67-.96-10.34-.03-.32-.45-.99-.48-1.22-.13-1.12,.02-2.58-.24-3.65-.12-.5-.13-1.03-.13-1.7,0-.33,0-.71-.02-1.13-.02-.4-.06-.82-.13-1.31-.08-.55-.47-1.3-.52-1.64-.21-1.33-.4-2.69-.56-4.2-.25-1.5-.45-3.14-.95-4.95-.18-.69-.62-1.32-.89-2.03-1.35-4.14-2.81-8.71-1.41-9.81,.27-.2,1.04-.15,1.97,.46,.69,.45,2.12,2.91,1.95,.53-.06-1.28-.69-3.21-1.53-5.28-.46-1.01-.94-2.08-1.48-3.09-.57-1-1.12-1.98-1.66-2.86-.57-.86-1.04-1.1-1.86-2.27,.12,.18,.17-.48-.09-.62-.33-.19-.77-.64-1.28-1.25-.5-.62-1.1-1.37-1.74-2.16-1.24-1.61-2.71-3.32-3.8-4.43-.09-.09-.22,.12-.56-.28-.19-.21-.36-.74-.19-.59-.57-.51-1.04-.81-1.48-1.1-.45-.27-.88-.52-1.35-.95-.44-.39-.95-.98-1.53-1.55-.58-.57-1.17-1.16-1.69-1.63-3.35-2.94-6.95-4.82-9.97-7.39-1.49-1.28-1.39-1.95-4.52-3.48-.72-.32-1.47-.36-2.13-.83,0,0-.19-.18-.47-.41-.28-.24-.66-.55-1.04-.88-.76-.64-1.55-1.35-1.64-1.46-1.3-1.99,3.28-3.39-2.73-4.39-.75-.1-1.17,.2-1.93,.1-.73-.12-2.2-.57-2.92-.63-.98-.08-1.66,.22-1.89,.22-1.52-.07-3.77-.65-5.26-.63-.28,0-.43,.37-.65,.37-.88-.02-2.08-.29-3.48-.26-.75,0-1.47,.16-2.34,.24-.54,.04-1.88-.12-1.72-.13-2.11,.19-2.39,.9-4.03,.58-.43-.23-.64-.55-.59-.97-3.09-.61,1.58,.47-1.22,0-.75-.13-.99-.39-1.83-.48-.47-.36,.73-.52,1.22-.96,.33-.3,.19-.92,.61-1.2,.95-.65,3.19-.83,3.04-1.16-.95-2.03-7.41-.08-9.13,.2-3.45,.61-6.45,.89-10.34,1.44-1.94,.27-3.98,.84-6.69,1.2-.92,.12-1.33,.15-1.83,.24-1,.18-4.58,.51-6.69,.72-.91,.09-2.07,.17-3.04,.24,.11,0-.28,.4-.61,.24-1.2-.59-1.2,0-2.43,.24-1.36,.27-2.24,0-4.26,.24-.3,.04-1.02,.46-1.22,.48-1.29,.13-2.7,.13-4.26,.24-1.3,.09-2.84,.12-4.26,.24-4.21,.34-7.5,.85-12.78,.96-.21,0-1.45-.3-2.43-.24-2.96,.18-8.31-.14-10.34-.48-2.22-.37-2.49-.48-3.65-.96-1.38-.57-1.62-2.47,0-3.12,.32-.13,1.65-.35,1.83-.48,.4-.31-.23-.86,0-1.2,.12-.18,1.43-.54,1.22-.72-1.19-1.01-5.87-.52-8.52-.24-2.83,.3-5.79,.16-7.91,.96-.61,.23-5.13,.45-7.3,.72-.73,.09-1.56,.34-2.43,.48-.51,.08-1.33-.09-1.82,0-.21,.04-.46,.46-.61,.48-.92,.11-2.5-.1-3.65,0-1.04,.09-1.57,.43-2.43,.48-1.15,.06-1.7-.23-3.04-.24-1.9-.02-4.39,.44-6.69,.48-2.15,.04-4.5-.2-6.69-.24-3.85-.06-9.08,.35-11.56-.24-.83-.2-.1-.62-.61-.96-.53-.35-2.05-.57-1.83-1.2,.14-.39,1.28-1.23,1.22-1.68,0-.07-.77-.23-.61-.48,.12-.19,1.9-1.26,2.43-1.68,.47-.37,.65-.59,1.22-.96,1.04-.67,1.53-.98-.61-1.92-.52-.23-1.84-.84-2.43-.96-1.07-.21-3.97-.08-5.48-.24-1.39-.14-2.29-.44-3.04-.48-3.06-.14-7.98-.24-11.56-.24-1.4,0-2.53,.25-3.65,.24-10.45-.14-23.08-.23-32.24,1.2-1.4,.22-2.95,.03-5.48,.24-2.7,.23-5.31,.75-7.91,.96-2.06,.17-4.11,.03-6.08,.24-.44,.05-.66,.27-1.22,.24-.21,0-.92-.2-.61-.24-1.85,.22-2.28,.61-3.7,.74-.91,.07-2.2,.17-3.64,.28-1.43,.17-3.01,.28-4.5,.5-2.97,.38-5.57,.89-6.02,.87,.1,0-.73-.36-.73-.36,.14,.02-.77-.27-.69-.11-.18-.37,1.42-.85,1.15-.95-.66-.26-1.83-.23-3.28,0-1.46,.19-3.16,.66-4.9,1.22-.88,.26-1.74,.62-2.58,.96-.84,.35-1.68,.67-2.44,1.05-1.52,.77-2.87,1.43-3.78,2.02-.72,.45-1.66,.98-2.76,1.55-1.08,.61-2.29,1.3-3.58,2.03-2.53,1.52-5.29,3.26-7.57,5.09-4.24,3.33-7.19,6.98-9.52,8.86-.8,.6-1.68,1.03-2.56,1.39-.86,.38-1.72,.69-2.27,1.23-2.62,2.37-4.53,6-6.87,9.66-.54,.89-1.39,1.75-1.97,2.64-.57,1-1.66,2.81-2.62,4.84-1.04,2-1.97,4.2-2.77,5.72-1.36,2.79-3.16,5.26-4.22,8.37-1.74,4.92-2.91,12.14-3.18,19.11-.02,.84-.05,1.68-.07,2.52l-.03,1.26v1.15c-.02,1.54-.03,3.08-.04,4.61-.02,3.07-.02,6.11,.05,9.04,.07,2.84,.4,5.52,.48,8.52,.18,6.6-.34,13.46,0,18.86,.07,1.15,.47,2.36,.48,3.65,.02,2.87-.62,5.3-.48,9.73,.19,6.08,.71,14.65,.96,21.9,.06,1.63-.07,2.81,0,4.26,.1,2.09,.43,4.06,.48,6.09,.02,.92-.28,2.05-.24,3.04,.13,3.02,.64,5.79,.72,8.52,.06,1.82-.05,3.68,0,5.48,.12,4.1,.5,8.17,.48,11.56,0,.43,.07,1.44,0,1.83-.01,.06-.48,.66-.48,.61,0,.5,.4,1.78,.48,3.04,.18,2.99,.03,7.53,0,9.73-.02,1.53,.23,5.19,0,7.91-.38,4.47-1.12,7.85-2.88,7.3,.16,.05-.73-.64-.72-.61-.15-.31-.08-1.5-.24-1.83-.46-.94-1-1.15-1.2-1.82-.12-.41-.03-2.08-.24-3.04-.06-.26-.44-.39-.48-.61-.06-.31,.07-.94,0-1.22-.21-.78-.64-.93-.96-1.82-.2-.56-.26-1.82-.48-2.43-.82-2.29-2.05-6.08-2.16-1.83-.01,.55,.3,1.33,.24,2.43-.1,1.78-.5,2.99-.48,4.26,.02,1.25,.37,2.31,.48,3.65,.16,1.93-.04,3.42,.24,5.48,.26,1.92,.3,1.33,.24,3.65-.04,1.86,.36,3.11,.48,5.48,.14,2.6,.07,5.27,.24,7.91,.18,2.82,.53,5.56,.72,8.52,.21,3.27,.21,6.96,.48,10.34,.08,.98,.41,1.98,.48,3.04,.1,1.47-.07,2.77,0,4.26,.09,1.77,.41,4.67,.72,6.69,.21,1.38,.31,3.59,.48,6.08,.28,4.12,.28,10.72,.72,15.21,.12,1.18,.41,2.03,.48,3.04,.04,.63,.02,1.3,.02,2.1,0,.82,0,1.66,.05,2.43,.05,1.42,.31,2.88,.53,4.26,.19,1.38,.48,2.67,.61,3.77,.06,.48,.08,1.2,.15,2.07,.08,.87,.17,1.88,.3,2.96,.1,1.08,.36,2.19,.6,3.27,.13,.54,.27,1.07,.43,1.57,.17,.5,.37,.97,.57,1.41,.83,1.9,2.22,6.98,4.33,11.33,.6,1.22,.94,1.55,1.33,2.34,.7,1.28,1.24,3.12,1.97,4.28,.58,.93,1.24,1.23,1.76,2.08,.75,1.19,1.24,2.45,1.95,3.52,2.37,3.31,4.95,6.1,7.33,8.68,1.56,1.72,3.25,3.8,5.43,5.89,3.13,3.02,7.66,6.07,10.49,8.26,.87,.65,1.89,1.59,2.77,2.39,.89,.79,1.61,1.5,1.78,1.79,.43,.76-.66,1.57-.34,2.02,.48,.7,1.93,1.75,3.27,2.79,2.63,1.88,3.72,2.81,9.49,4.72,.23,.07,1.21,.16,2.09,.45,.72,.25,2.16,.87,1.96,.84,1.17,.27,1.84,.08,2.85,.3,1.44,.27,2.85,.75,4.12,.95,1.14,.14,2.32,.05,3.55,.15,.87,.09,1.89,.33,2.78,.39,1.17,.07,2.41-.06,3.53-.1,2.74,0,5.23,.24,7.62-.14,.37-.07,1.05-.46,1.22-.48,.92-.11,2.09,.07,3.04,0,.83-.06,1.65-.36,2.43-.48,.51-.08,1.33,.09,1.83,0,.2-.04,.47-.46,.61-.48,1.51-.17,3.43-.11,4.87-.24,3.54-.32,8.32-1.49,11.56-.72,.95,.85-2.07,.15-1.82,.72,1.31,.27,1.81-.03,3.04,.24,1.32,.29,1.2,.89,2.44,.96,1.23,.07,3.07-.42,4.26-.48,2.02-.1,4.33,.1,6.69,0,1.66-.07,3.2-.42,4.87-.48,5.31-.19,13.1-.33,18.86,0,1.03,.06,1.35,.36,2.43,.48,1.72,.2,3.45,.02,4.87,.24,2.23,.34,3.53,1.12,5.48,1.44,3.51,.57,8.24,.37,12.17,.72,.98,.09,2.11,.43,3.04,.48,2.44,.12,4.77-.09,7.3,0,2.92,.1,6.36,.57,9.73,.72,3.05,.14,6.46-.04,9.13,.24,2.14,.23,4.19,1.19,6.69,1.44,2.93,.29,8.41,.17,13.39,.24-.05,0,.14-.28,.61-.24,5.06,.4,12.83,.05,17.64,0,1.09,0,1.28,.28,2.43,.24,1.54-.05,3.04-.05,4.87,0,1.17,.03,2.14-.26,3.04-.24,2.8,.06,4.74,.1,7.91,0,1.08-.03,1.79,.26,3.04,.24,.57,0,3.39-.21,5.48-.24-.15,0,.3-.39,.61-.24,1.57,.78,5-.89,7.3-.96,1.71-.05,3.25,.47,5.48,.72,5.44,.61,13.89,.59,21.9,.72,1.34,.02,4.39-.42,4.87,.48-5.77-.23-11.78,.2-17.64,.24-.87,0-2.13-.26-3.04-.24-1.33,.03-2.41,.4-3.65,.48-.96,.06-1.75-.26-3.04-.24-.6,0-1.33,.24-2.43,.24-1.26,0-2.48-.26-3.65-.24-4.67,.07-9.7,.66-13.99,.72-.62,0-1.87,.09-2.43,0-.52-.08-.36-.45-1.22-.48-.73-.02-.85,.44-1.22,.48-.8,.09-1.06-.25-1.22-.24-5.67,.3-12.57-.06-20.08,.24-2.08,.08-4.11,.47-6.09,.48-5.87,.04-11.2-.7-15.21-.48-.89,.05-3.36,.54-4.26,.48-.29-.02-.4-.44-.61-.48-1.43-.25-2.27,0-3.65-.48-.93-.32-1.77-.88-3.65-.96-1.68-.07-3.52,.08-5.48,0-1.45-.06-2.82-.39-4.26-.48-3.9-.25-7.72,.12-11.56,0-1.3-.04-2.73-.4-4.26-.48-2.21-.12-4.69,.1-7.3,0-1.02-.04-2.58-.41-3.65-.48-3.33-.21-4.02,.27-5.48-.48-.08-.04-.52-.47-.61-.48-.8-.13-2.31,.18-3.04,0-.29-.07-.3-.62-.61-.72-.16-.05-2.96-.63-3.65-.72-.98-.12-2.56,.07-4.26,0-2.63-.11-3.72-.56-7.3-.48-.45,.01-.66,.3-1.22,.24-.71-.07-4.54-.31-6.69-.24-1.19,.04-2.47,.41-3.65,.48-1.6,.1-3.92-.08-6.09,0-6.25,.22-10.02,1.59-13.99,.48-.7-.2-.75,.05-1.22-.24-.46-.28,0-.28-.61-.48-1.26-.43-2.39-.43-4.26-.24-.37,.04-.73,.29-1.22,.24-.16-.02,.01-.32-.61-.24-1.19,.14-2.36,.61-3.65,.72-2.57,.21-5.22-.02-7.3,.24-1.04,.13-2.15,.63-3.04,.72-.43,.04-.87,.07-1.33,.09-.53,0-1.06,0-1.6,0-1.09-.01-2.19,0-3.22,.02-2.16,0-4.35,.21-6.46,.12-1.03-.03-2.17-.15-3.59-.29-.98-.08-2.18,.06-2.93-.04-1.35-.23-2.67-.57-3.96-.9-1.29-.35-2.53-.77-3.74-1.06-.3-.85,2.03,.1,1.72-.76-3.11-.77-1.35,1-2.55,1.01-4.25-1.44-8.78-3.18-12.06-5-1.09-.62-1.73-1.1-2.36-1.64-.63-.54-1.24-1.13-2.17-2.09-1.75-1.78-1.92-1.95-2.65-3.82-.19-.47-.35-1.58-.52-1.76-.76-.77-2.89-2.01-4.92-3.75-.94-.86-1.72-1.93-2.39-2.49-3.56-3.14-8.15-6.89-11.89-11.28-.95-1.16-1.87-2.3-2.66-3.44-.8-1.14-1.55-2.2-2.23-3.17-.93-1.36-2.34-2.68-2.96-3.83-.81-1.4-1.2-2.91-1.91-4.45-.91-1.83-2.03-4.32-3.12-6.13-.39-.68-.85-.91-1.21-1.75-.56-1.22-.56-3.09-.95-4.06-.49-1.18-1.03-2.34-1.58-3.5-.27-.58-.55-1.17-.8-1.76-.23-.6-.44-1.2-.61-1.81-.97-3.21-1.38-7.41-1.62-11.52-.05-1.03-.09-2.05-.13-3.06-.03-1.01-.05-2-.08-2.95-.09-2.02-.16-3.46-.42-4.85-.27-1.49,.29-9.45-.48-11.56-.46-1.24-.32-.19-.24-3.04,.08-2.82-.27-4.82-.72-7.3-.37-2.04,.17-1.21,.24-3.04,.01-.33-.31-3.52-.48-4.87-.11-.9-.43-1.61-.48-2.43-.11-1.64,.13-3.85,0-5.48-.14-1.73-.62-3.26-.72-4.87-.07-1.04,.29-1.84,.24-3.65-.03-.96-.35-1.07-.48-2.43-.08-.87,.09-2.78,0-3.65-.1-.97-.31-2.08-.48-3.04-.56-3.11-.59-8.28-.96-13.99-.08-1.19-.36-1.65-.48-3.04-.18-2.15-.09-6.14-.24-9.73-.08-1.81-.32-3.93-.24-6.69,.02-.85,0-2.38,0-2.43,.06-.69,.41-.79,.48-1.22,.27-1.7,.1-1.76,.72-3.04,.08-.16,.45-1.18,.48-1.22,.88-.87,2.51,0,2.88,.61,.14,.24-.1,2.05,0,2.43,.17,.62,.88,.97,1.2,1.83,.15,.41,.11,1.39,.24,1.82,.13,.44,.33,.71,.48,1.22,.55,1.88,.92,3.85,1.44,5.48,.54,1.69,1.17,3.03,1.68,4.26,.54-2.17,.1-4.77,.24-7.3,.06-1.1,.47-2.52,.48-3.65,.02-1.54-.4-2.7-.48-4.26-.13-2.49,.25-5.28,.24-7.91-.01-2.23-.12-5.44-.24-7.91-.07-1.5-.45-2.94-.48-4.26-.04-1.35,.32-2.38,.24-3.65-.06-.9-.1-2.03-.24-3.04-.1-.74-.44-1.54-.48-2.43-.08-1.58,.27-3.24,.24-4.87-.02-1.33-.37-2.11-.48-3.65-.25-3.52,.29-7.49-.24-10.34-.13-.71-.41-1.01-.48-1.82-.16-1.9,.07-3.96,0-6.08-.05-1.47-.37-2.24-.48-3.65-.08-.98,.24-1.04,.24-1.82,0-.61-.46-2.56-.48-3.65-.02-.93,.28-1.13,.24-1.82-.08-1.19-.45-2.04-.48-3.04-.03-1.1,.24-1.77,.24-3.04,0-.84-.24-2.17-.24-3.04,0-2.05,.24-4.04,.24-6.08,0-1.28-.27-2.38-.24-3.65,.03-1.18,.25-2.47,.24-3.65-.04-4.21-.58-8.94-.24-12.78,.05-.53,.24-2.67,.24-2.43-.01-1.15-.38-1.89-.48-3.04-.27-3.23-.06-5.95,0-9.13,.06-2.98-.22-6.2-.24-9.13-.05-5.98,.85-12.25,2.23-18.37,1.1-4.93,1.83-8.59,3.81-12.48,.94-1.87,2.31-2.82,3.54-5.15,.18-.35,.54-1.05,.96-1.97,.43-.91,.93-2.04,1.52-3.15,1.11-2.27,2.48-4.56,3.17-5.71,1.04-1.55,2.45-3.45,4.04-5.47,2.5-3.26,5.76-7.42,7.15-8.2,1.04-.63,2.18,.63,2.94,.18,.24-.15,.88-.66,1.71-1.37,.83-.71,1.84-1.62,2.9-2.47,2.06-1.77,4.27-3.37,4.62-3.8,.4-.44,.98-.81,1.7-1.29,.73-.48,1.6-1.05,2.68-1.77,.78-.52,1.41-1.31,2.09-1.76,1.29-.77,2.72-1.54,4.17-2.24,1.46-.69,2.9-1.38,4.25-2.01,.88-.43,1.67-.89,2.44-1.35,.79-.43,1.57-.84,2.4-1.2,.98-.45,2.22-.67,3.25-1.01,.85-.28,1.57-.62,2.21-.9,.64-.26,1.17-.49,1.64-.6,.32-.08,1.31-.28,2.32-.46,1.01-.14,2.04-.26,2.43-.26,.03,0,.87,.13,1.74,.25,.86,.17,1.72,.36,1.8,.42,.88,.66-1.32,1.27,.19,1.43,.46,.05,1.37,.02,2.53-.06,1.17-.04,2.59-.15,4.06-.32,1.33-.1,1.69-.58,3.29-.81,.19-.03,.45-.04,.76-.04,.29,0,.62,.02,.99,.03,.74,.03,1.63,.05,2.57-.01,1.14-.08,1.93-.41,3.04-.48,2.09-.13,4.54,.09,7.3-.24,.28-.03,1.03-.46,1.22-.48,.95-.09,2.07,.05,3.04,0,1.18-.06,2.07-.41,3.04-.48,4.35-.32,8.16-.36,12.17-.72,1.8-.16,3.66-.47,4.87-.48,1.48-.01,2.47,.28,3.65,.24,2.32-.08,2.92-.44,4.26-.48,1.22-.03,2.43,.24,3.65,.24,1.16,0,2.38-.21,3.65-.24,.97-.02,2.38,.25,3.65,.24,1.09,0,1.28-.27,2.43-.24,1.58,.04,3.04,.41,4.87,.48,.95,.04,2.09-.24,3.04-.24,1.77,0,4.42,.44,6.69,.48,1.11,.02,2.18-.29,3.04-.24,1.19,.07,2.31,.34,3.65,.48,1.85,.2,4.02,.34,3.65,.24,2.01,.57,3.15,2.04,3.04,3.12-.06,.6-1.09,.99-1.82,1.68-.42,.39-.26,.65-.61,.96-.85,.75-.94,.85-1.22,2.4-.18,1.01-.85,1.02,1.22,1.44,1.71,.35,.97-.25,3.65-.24,1.52,0,3.05,.27,4.87,.24,1.41-.03,3.06-.29,4.26-.24,1.28,.05,2.1,.5,3.04,.48,1.58-.04,4.79-.39,6.69-.72,.62-.11,.92-.19,1.82-.24,1.69-.1,2.63,.27,4.26,.24,.84-.02,2.46-.31,3.65-.48,1.11-.16,3-.32,3.65-.48,.72-.18,1.26-.81,2.43-.96,3.68-.47,6.11,.2,9.73-.48,.7-.13,1.32-.05,1.83-.24,.15-.06,.47-.46,.61-.48,.9-.15,1.12,.31,1.82,.24,.43-.04,.45-.44,1.22-.48,6.05-.31,12.59,.28,10.34,3.12-.15,.19-.35,.46-.61,.72,0,0-.12,.16-.25,.33-.14,.17-.29,.36-.36,.39-.36,.18-2.73,.4-3.04,.72-.04,.04,.65,.66,.61,.96-.02,.16-1.14,.62-.61,.96,.51,.33,.98,.04,1.83,.24,.16,.04,.51,.47,.61,.48,1.58,.16,5.78,.21,7.91,.24,1.32,.02,2.93-.25,4.87-.24,2.28,0,4.96,.08,8.52-.24,.87-.08,2.12-.13,3.04-.24,.78-.09,1.69-.41,2.43-.48,5.13-.44,10.03-.43,12.17-.72,2.06-.28,3.54-1.04,4.87-1.2,.18-.02,1.75,.12,3.65,0,.54-.03,1.56-.47,1.83-.48,.9-.05,1.2,.32,1.82,.24,.86-.11,.51-.4,1.83-.72,.95-.23,2.07-.01,3.04-.24,.84-.2,1.66-.47,2.43-.72,.45-.14,1.38-.64,1.83-.72,.66-.12,1.73,.08,2.43,0,.33-.04,.97-.45,1.22-.48,1.06-.14,2.58-.07,3.65-.24,2.5-.4,4.52-1.11,6.69-1.44,.79-.12,1.54-.24,2.28-.33,.75-.08,1.47-.14,2.12-.18,.66-.04,1.26-.05,1.79-.02,.53,.05,.98,.13,1.34,.26,.81,.28,.08,.61,.56,1.01,.29,.24,1.08,.22,1.21,.57,.47,1.42-2.31,2.77-2.72,3.64,1.34,.15,2.5-.03,3.58-.16,1.08-.13,2.08-.32,3.08-.35,1.67,.04,3.41,.32,4.84,.43,1.05,.06,2.05,.01,3-.01,.94,0,1.84-.03,2.69,0,.66,.01,1.25,.27,1.84,.33,.44,.04,.93-.08,1.33-.05,.47,.04,1.33,.34,1.85,.39,1.22,.12,.6-.18,3.77,.74,2.77,.92,2.7,.83,3.23,2.02,.43,1.02-1.75,3.33-.32,4.69,.62,.58,1.4,.88,2.31,1.23,.9,.35,1.99,.63,3.09,1.31,.04,.02,.38,.63,.87,.85,.53,.24,1.11,.23,1.97,1.33,1.06,1.31-.44,.71,.46,2.39,2.79,1.96,4.91,4.03,7.12,5.98,.66,.58,1.34,.7,2,1.29,.64,.55,1.3,1.21,2,1.91,.66,.73,1.36,1.52,2.11,2.27,2.63,2.77,5.41,5.6,8.18,10.13,.08,.13,.58,.35,.81,.91,.08,.22-.26,.08,.07,.64,.49,.82,1,1.12,1.52,1.9,.17,.25,.56,.92,1.02,1.85,.47,.92,1.07,2.06,1.57,3.27,.53,1.2,1.04,2.43,1.38,3.5,.35,1.07,.65,1.93,.69,2.41,.03,.21-.14,.95-.13,1.29,.05,2.25-1.48,3.49-3.61,2.21-.49-.29-.81-.41-.92-.1-.11,.31,.02,1.06,.3,2.56,.09,.44,.49,.79,.61,1.57,.08,.59,.24,2.25,.69,3.82,.46,1.96,1.14,3.14,1.17,3.79,.34,3.51-.66,1.87,.25,4.48,.17,.51,.32,1.19,.44,2.07,.1,.91,.18,1.96,.26,3.07,.15,2.23,.29,4.72,.55,6.88,.28,2.3,.66,4.58,.96,7.3,.12,1.13,.09,2.65,.24,3.65,.13,.87,.59,.05,.72,.61-.03-.14,.07,2.36,.24,3.65,.24,1.84,.64,4.08,.72,7.3,.04,1.37-.24,2.11-.24,3.04,0,3.09,.39,5.49-.72,7.91-.05,.11-.46,.49-.48,.61-.28,1.58-.22,.67-.96,1.83-.14,.22-.39,1.13-.48,1.22-.91,.95-1.84,.08-2.16,1.82-.34,1.83,.88,9.75,1.2,12.78,.35,3.27,.11,4.2,.72,6.08,.43,1.34,.15,1.68,.48,4.26,.06,.45,.36,.91,.48,1.82,.12,.91,.42,1.39,.48,1.83,.12,.91-.12,2.14,0,3.04,.08,.56,.37,1.12,.48,1.82,.14,.92,.09,1.49,.24,2.43,.22,1.4,.68,3.05,.72,3.65,.07,1-.26,1.04-.24,1.83,.03,1.4,.57,3.4-.48,4.26-.54,.44-.77,1.18-.96,1.22-.92,.17-1.25-1.1-2.4-3.65-.07-.15-1.43-5.03-1.92-4.26-1,1.59,.41,4.46,.96,7.91,.48,3,.41,8,1.44,9.73,.64,1.07,.07,2.65,.72,4.87,.05,.19,.47,1.18,.48,1.22,.11,.86-.16,2.25,0,3.04,.16,.77,.6,.32,.72,1.22,.09,.69,.23,2.32,.24,2.43,.14,1.75-.11,3.97,0,4.87,.12,.96,.56,0,.72,.61,.17,.63,.1,3.18,.24,4.26,.05,.42,.84,1.34,.48,3.65-1.11,1.52-1.85,.64-2.4-1.22-.13-.43-.46-.58-.48-1.22,0-.24,.34-.93,.24-1.22-.12-.34-.58-.33-.72-.61-.33-.65-.72-2.86-1.44-3.04-.05,1.72,.22,2.43,.48,3.65,.05,.25-.08,1.02,0,1.22,.21,.52,.57,.54,.72,1.22,.17,.78,.04,2.2,.24,3.04,.46,1.91,1.51,3.29,1.68,6.08,.07,1.18-.33,2.47-.24,3.04,.2,1.23,.82,1.62,1.2,3.04,.25,.93,1.82,10.44,1.2,13.38,0,0-.07,.13-.18,.3-.11,.17-.26,.39-.42,.61-.32,.45-.68,.89-.84,.92-.55,.08-.44-.84-.72-1.22-.33-.45,.03-.2-.24,0-.91,.68-.49-1.64-.96-3.04-.16-.49-.92-.63-1.2-1.22-.07-.15-.17-1.03-.24-1.22-.73-1.86-1.39-5.96-2.16-8.52-.34-1.15-.87-2.01-1.2-3.04-.19-.58-.32-2.59-.72-3.04-.08-.09-.44,.16-.48,0-.39-1.4-.33-3.63-.72-4.87-.48-1.53-.98-1.2-1.44-2.43-.9,.48-.02,2.13-.48,3.04-.35-.14-.08-1.81-.48-1.82-.43,.72,.04,2.15,.48,1.82,.96-.71,.35,3.37,.48,4.26,.09,.65,.4,.45,.48,1.22,.09,.95-.1,2.09,0,3.04,.18,1.71,.69,3.82,.96,6.08,.18,1.53,.16,8.31,.72,9.74,.13,.34,.65,.14,.72,.61,.09,.65-.11,2.14,0,3.65,.11,1.48,.83,2.94,.96,4.26,.08,.78-.33,2.36-.24,3.04,.1,.71,.33,1.14,.48,1.83,.08,.37,.11,1.25,.24,1.83,.06,.25,.44,.39,.48,.61,.06,.33-.07,.91,0,1.22,.33,1.47,.33,1.39,.72,4.26,.3,2.26,2.76,14.24,1.2,16.43-1.03,1.45-1.33,1.02-2.16-1.82-.19-.65,0-.73-.24-1.22-.26-.52-.14-1.9-.72-2.43-.38,2.86,.52,5.51,.96,7.91,.21,1.13,.53,2.43,.72,3.65,.42,2.69,.66,5.16,1.2,7.91,.19,.98,.6,2.09,.72,3.04,.12,.92-.11,2.12,0,3.04,.05,.46,.47,1.05,.48,1.22,.12,1.69-.09,3.61,0,5.47-.81,.17-1.38,.97-2.4,.61,.07,.82,.07,1.36,.42,2.78,.16,.67,.53,.91,.65,1.69,.13,.78-.08,2,.03,2.79,.06,.67,.44,1.15,.5,1.75,.19,1.53,.14,3.01,.24,4.63,.11,1.67,.34,3.25,.3,4.2-.04,.63-.79,2.37-.94,3.35,0,.09,.57,1.01-.28,2.36-.87,1.38-1.47,1.06-1.95,.53-.39-.42-.23-1.67-.07-2.85,.14-1.19,.19-2.35-.22-2.56-.3,.09-.25,.55-.3,1.07-.02,.28-.17,1.11-.27,1.66-.2,1.24-.09,2.25-.22,3.49-.05,.56-.2,.68-.19,1.14,0,.37-.02,1.07-.14,1.92-.12,.85-.3,1.87-.51,2.93-.25,1.04-.56,2.11-.88,3.07-.32,.96-.73,1.76-1.08,2.33-.69,1.06-.47,.88-1.61,1.75-.52,.4-.67,.13-1.34,1.2-.78,1.26-1.12,2.11-1.29,2.98-.18,.87-.29,1.68-.77,2.73-.18,.4-1.06,1.87-1.5,2.6-.87,1.55-1.17,2.47-2.62,3.26-.27,.15-.86,.15-1.17,.53-1.27,1.51-2.42,4.02-4,6.3-.74,1.08-1.47,2.04-2.28,3.04-.84,.99-1.98,1.99-2.59,2.76-1.3,1.48-2.29,3.33-4.21,5.16-.46,.44-1.18,.77-1.56,1.15-.5,.53-1.38,1.27-2.33,2.06-.95,.78-2,1.56-2.77,2.28-2.58,.99,.76-.65-2.6,.56-1.27,.44-1.37,.26-2.27,1.39,.08,.56,2.21-.74,3.15-.96-.29,.54-1.03,1.03-1.89,1.53-.86,.5-1.87,.92-2.66,1.44-1.1,.76-3.17,2.69-4.69,3.16-1.65,.45-.34-.22-1.93,.71-.61,.35-.96,.66-1.85,1.17-.91,.5-2.35,1.04-3.93,1.64-1.58,.56-3.3,1.1-4.73,1.64-.73,.25-1.39,.71-2.05,.88-.56,.14-1.56,.03-2.13,.16-.46,.09-1.48,.87-4.26,.59-.74-.36,.71-.93,.7-.98,0-.16-1.13-.41-.71-.7,.75-.52,4.74-1.02,6.87-1.75,.53-.16,.66-.39,1.33-.59,1.19-.39,3.09-1.01,4.61-1.57l.15,.95c2.21-.08,.28-.98,1.1-1.66-.45,.38,2.96-1.47,3.1-1.58,.55-.21,3.91-1.17,4.32-1.82,.81-1.16,.38-.03,2.39-1.19,.51-.32,.89-.77,1.63-1.31,.4-.3,.96-.62,1.56-.99,.58-.39,1.2-.81,1.74-1.26,.11-.09,1.07-.63,1.1-.69,.61-1.16,.14-.08,2.14-1.47,.26-.18,.16-.54,.38-.7,.76-.51,2.04-1.31,2.61-1.83,.88-.8,1.22-1.8,2.05-2.75,.48-.55,1.69-1.19,2.39-1.98,.46-.49,.68-1.09,1.15-1.59,.44-.46,1.12-.78,1.01-.67,.39-.43-.05-.42,.22-.75,1.32-1.58,3.4-3.69,4.64-5.69,.7-1.17,1-2.23,1.65-3.41,.31-.54,1.2-1.31,1.5-1.76,.73-1.24,1.34-2.77,2.06-4.32,.26-.54,.63-1.12,1-1.7,.36-.59,.7-1.21,.96-1.78,.09-.21-.12-.56-.03-.73,.49-.89,1.1-1.91,1.38-3.09,.17-.58,.83-2.7,1.09-3.83,.12-.51,.3-1.19,.51-1.93,.21-.74,.46-1.54,.56-2.37,.22-1.56,.04-1.94,.33-2.77,.27-.89,1.52-2.12,1.91-3.15,1.11-2.53,.83-5.9,.81-8.42,.01-.35,.16-1.14,.12-1.54-.05-.43-.18-1.25-.26-2.11-.12-.88-.18-2.28-.36-3.58-.08-.57,.03-1-.05-1.49-.08-.64-.75-2.24-.65-3.48,.09-1.21,.58-2.18,.84-3.38,.92,.37,.86,2.71,2.09,2.54-.33-.41-.54-1.71-.9-2.54-.28-.67-.75-5.07-1.19-6.64-.09-.34-.43-.98-.48-1.22-.13-.7,0-2.87-.24-4.26-.15-.92-.87-.53-.72-3.04,0-.08,.44,.07,.48,0,.07-.13,.3-2.58,.24-3.04,1.4,1.11,1.95,4.39,2.88,6.69,.83-1.14-.16-4.01-.48-6.09-.17-1.06-.56-1.8-.72-3.04-.14-1.09-.04-2.53-.24-3.65-.13-.71-.32-.71-.48-1.22-.3-.97-.64-3.46-.96-4.87-.47-2.12-1.29-4.31-1.2-6.08,0-.06,.25-.98,.49-1.88,.12-.45,.24-.9,.33-1.23,.09-.33,.14-.55,.14-.55,.37-.23,.43,.9,.96,1.83,1.09,1.92,.57,.38,.96,3.65,.05,.4,.42,.9,.48,1.22,.21,1.07,.29,2.15,.48,3.04,.43,2.08,1.09,3.77,1.44,5.48,.34,1.7,.36,3.95,.72,5.48,.13,.57,.5,1.11,.72,1.82,.18,.59,.26,2.42,.72,1.83,.48-1.79-.17-3.29-.48-4.87-.13-.64-.31-1.57-.48-2.43-.04-.18-.16-.91-.24-1.22-.07-.26-.46-.49-.48-.61-.12-.67,.12-1.76,0-2.43-.07-.36-.46-.48-.48-.61-.14-1.09-.08-1.95-.24-3.04-.15-1.02-.32-1.88-.48-3.04-.28-2.07-.23-3.5-.72-5.48-.18-.73-.6-1.2-.72-1.83-.36-1.88-.2-3.79-.48-5.48-.33-1.98-.77-3.52-1.2-6.08-.08-.48-.45-1.52-.48-1.83-.12-1.11,.14-1.46,0-2.43-.32-2.19-1.27-5.4-1.2-7.91,.01-.49,.19-1.55,.36-2.49,.09-.47,.18-.91,.24-1.23,.07-.32,.12-.54,.12-.54,.46-.46,1.44,2.17,2.16,4.87,1.11,4.19,1.73,9.12,2.64,13.99,.21,1.14,.54,2.06,.72,3.04,.25,1.39,.28,2.76,.48,3.65,.26,1.21,1.34,2.96,1.2,6.09Z"/>
      </g>
      <path class="cls-4" d="M499.08,385.17c-5.32-5.15-13.82-5.29-19.21-.14-.38,.37-.75,.75-1.13,1.12l-7.37,7.37c-4.38,4.38-8.76,8.75-13.14,13.13-5.73,5.73-11.46,11.46-17.19,17.19-6.51,6.51-13.03,13.03-19.54,19.54s-13.46,13.45-20.18,20.18c-6.37,6.37-12.74,12.74-19.11,19.11-5.44,5.44-10.89,10.88-16.33,16.33l-11.84,11.84c-1.87,1.87-3.9,3.66-5.64,5.64-.07,.08-.16,.16-.24,.24h3.54c-4.62-4.65-9.25-9.31-13.87-13.96-9.42-9.48-18.84-18.97-28.26-28.45-7.54-7.59-15.08-15.18-22.62-22.78-1.87-1.88-3.72-4.05-6.06-5.34-4.79-2.63-10.77-2.12-15.06,1.25-1.24,.97-2.32,2.15-3.43,3.26-4.42,4.42-8.84,8.84-13.26,13.25l-6.08,6.08c-1.11,1.11-2.28,2.18-3.25,3.41-4.47,5.69-3.52,13.53,1.45,18.53l4.63,4.66c6.98,7.02,13.95,14.05,20.93,21.07,9.57,9.63,19.13,19.26,28.7,28.89,9.02,9.07,18.03,18.15,27.05,27.22,5.42,5.45,10.83,10.9,16.25,16.35,.42,.43,.84,.85,1.27,1.28,2.36,2.33,5.33,3.71,8.63,4.04,4.45,.43,8.45-1.53,11.52-4.6l10.39-10.4c6.74-6.74,13.48-13.48,20.22-20.22,8.85-8.85,17.7-17.7,26.55-26.56,9.76-9.76,19.53-19.53,29.29-29.29s19.16-19.16,28.74-28.74l24.59-24.6c5.64-5.64,11.28-11.28,16.91-16.92l4.56-4.56c1.34-1.34,2.68-2.64,3.62-4.33,2.55-4.57,2.28-10.48-.85-14.71-1.03-1.39-2.3-2.56-3.52-3.78-4.39-4.39-8.79-8.77-13.18-13.16-2.82-2.82-5.64-5.63-8.47-8.45-2.28-2.28-5.82,1.26-3.54,3.54,7.25,7.24,14.51,14.48,21.76,21.72,1.03,1.03,2.27,2.07,3.07,3.29,2.3,3.5,1.79,8.03-1.11,11.01-.58,.59-1.17,1.17-1.75,1.75l-12.32,12.32c-7.07,7.07-14.13,14.13-21.2,21.2l-26.77,26.77-29.02,29.02c-9.32,9.32-18.63,18.63-27.95,27.95-7.85,7.85-15.7,15.7-23.55,23.55-5.27,5.27-10.55,10.55-15.82,15.82-3.15,3.15-6.36,7.49-11.25,7.41-3.23-.05-5.33-1.91-7.42-4.01l-6.13-6.17c-7.51-7.56-15.02-15.12-22.54-22.68-9.5-9.56-18.99-19.12-28.49-28.68-8.63-8.69-17.27-17.38-25.9-26.07l-14.13-14.22c-.27-.27-.54-.54-.81-.82-3.07-3.23-3.2-8.55-.14-11.84,2.8-3.02,5.84-5.85,8.75-8.76l13.07-13.06c1.01-1.01,2.02-2.2,3.18-3.06,3.46-2.55,8.25-2.11,11.29,.86,4.63,4.53,9.14,9.2,13.71,13.8l27.85,28.04,22.65,22.81c1.18,1.19,2.37,2.38,3.55,3.57,.95,.96,2.58,.95,3.54,0,1.27-1.27,2.54-2.54,3.81-3.8,3.42-3.41,6.83-6.83,10.25-10.24,5.04-5.04,10.09-10.09,15.13-15.13l18.23-18.22c6.62-6.62,13.23-13.23,19.85-19.85s13.15-13.15,19.73-19.72c5.95-5.95,11.91-11.91,17.86-17.86l14.52-14.52c3.14-3.14,6.29-6.28,9.43-9.43,2.17-2.17,4.14-4.56,7.34-5.17,2.81-.54,5.68,.44,7.71,2.41,2.31,2.24,5.85-1.29,3.54-3.54Z"/>
    </g>
    <text class="cls-3" transform="translate(256.36 164.95)"><tspan class="cls-7" x="0" y="0">T</tspan><tspan class="cls-5" x="27.35" y="0">o-</tspan><tspan x="79.85" y="0">do List</tspan></text>
  </g>
</svg>