<?xml version="1.0" encoding="UTF-8" standalone="no" ?>
<!DOCTYPE svg PUBLIC "-//W3C//DTD SVG 1.1//EN" "http://www.w3.org/Graphics/SVG/1.1/DTD/svg11.dtd">
<svg xmlns="http://www.w3.org/2000/svg" xmlns:xlink="http://www.w3.org/1999/xlink" version="1.1" width="1080" height="1080" viewBox="0 0 1080 1080" xml:space="preserve">
<desc>Created with Fabric.js 5.2.4</desc>
<defs>
</defs>
<g transform="matrix(1 0 0 1 540 540)" id="f8c69cb6-57fd-404c-9573-694e5e41fd57"  >
<rect style="stroke: none; stroke-width: 1; stroke-dasharray: none; stroke-linecap: butt; stroke-dashoffset: 0; stroke-linejoin: miter; stroke-miterlimit: 4; fill: rgb(255,255,255); fill-rule: nonzero; opacity: 1; visibility: hidden;" vector-effect="non-scaling-stroke"  x="-540" y="-540" rx="0" ry="0" width="1080" height="1080" />
</g>
<g transform="matrix(1 0 0 1 540 540)" id="5c5bd05e-09fa-495f-b26d-76127afedd24"  >
</g>
<g transform="matrix(1 0 0 1 540 540)"  >
<rect style="stroke: none; stroke-width: 1; stroke-dasharray: none; stroke-linecap: butt; stroke-dashoffset: 0; stroke-linejoin: miter; stroke-miterlimit: 4; fill: rgb(255,255,255); fill-rule: nonzero; opacity: 1; visibility: hidden;" vector-effect="non-scaling-stroke"  x="-540" y="-540" rx="0" ry="0" width="1080" height="1080" />
</g>
<g transform="matrix(1.95 0 0 1.99 220.85 773.68)"  >
<path style="stroke: none; stroke-width: 1; stroke-dasharray: none; stroke-linecap: butt; stroke-dashoffset: 0; stroke-linejoin: miter; stroke-miterlimit: 4; fill: rgb(240,240,240); fill-rule: nonzero; opacity: 1;" vector-effect="non-scaling-stroke"  transform=" translate(-242.42, -555)" d="M 260.75635 531.5 L 231.24365 531.5 C 229.8960476441971 531.4969288114153 228.61579078416565 532.0887914044785 227.74512000000001 533.11737 C 224.7564562653561 532.5681053235168 221.7548171732435 534.01006211307 220.31569513764734 536.6863898901312 C 218.87657310205114 539.3627176671924 219.3287971240663 542.6618948458462 221.4350050511346 544.85225800559 C 223.54121297820288 547.0426211653337 226.82015149641117 547.6236881288132 229.55078 546.29047 L 232.99854 575.24463 C 233.5937946704653 577.1797220228523 235.38167369216717 578.5001826999109 237.40625 578.5 L 256.59425 578.5 C 258.6186559456406 578.4999999912984 260.4062964081351 577.1795687143504 261.00147 575.24463 L 265.16407 537.46771 C 265.5943347097109 536.0689634085869 265.3351939829181 534.5490229099748 264.4657535772607 533.3718682351666 C 263.5963131716034 532.1947135603585 262.21977739544536 531.5000753145348 260.75635 531.5 Z M 226.5 545 C 223.73857625084602 545 221.5 542.761423749154 221.5 540 C 221.5 537.238576250846 223.73857625084602 535 226.5 535 C 226.59131 535 226.67627 535.0221 226.7666 535.02692 C 226.567735433061 535.83175546659 226.59187635003283 536.6755605465805 226.83643 537.46771 L 228.94824 544.33246 C 228.20426762310598 544.7645002479322 227.36030499646307 544.9946160910641 226.5 545 Z" stroke-linecap="round" />
</g>
<g transform="matrix(1.95 0 0 1.99 922.85 717.47)"  >
<path style="stroke: none; stroke-width: 1; stroke-dasharray: none; stroke-linecap: butt; stroke-dashoffset: 0; stroke-linejoin: miter; stroke-miterlimit: 4; fill: rgb(230,230,230); fill-rule: nonzero; opacity: 1;" vector-effect="non-scaling-stroke"  transform=" translate(-601.41, -526.88)" d="M 609.41391 507.5 C 609.41391 503.0817220013536 605.8321879986463 499.5 601.41391 499.5 C 596.9956320013537 499.5 593.41391 503.0817220013536 593.41391 507.5 C 593.41391 511.9182779986464 596.9956320013537 515.5 601.41391 515.5 C 601.51352 515.5 601.6102 515.48871 601.70883 515.48511 C 603.6872821608166 521.9151570303483 604.7441842333062 528.5932121481187 604.84799 535.31995 C 604.9240947174669 538.6734230177162 604.7324060168924 542.0276208188648 604.2747499999999 545.3505899999999 C 603.92661 547.7084399999999 603.2766999999999 550.4135899999999 600.9358799999999 551.5150199999999 C 599.1902799999999 552.33643 600.7112699999999 554.9235299999999 602.4500399999998 554.10547 C 605.0901799999998 552.86322 606.3743599999998 550.0790999999999 606.9500399999998 547.35797 C 607.6066154061144 543.8496455225147 607.9092401726498 540.284256619246 607.8533599999998 536.71546 C 607.884439204898 529.2964722921547 606.8007312394174 521.9149143653677 604.6385199999999 514.81793 C 607.5400005405271 513.5406647466798 609.4131694209443 510.67017275648186 609.41391 507.5 Z" stroke-linecap="round" />
</g>
<g transform="matrix(1.95 0 0 1.99 952.99 728.94)"  >
<path style="stroke: none; stroke-width: 1; stroke-dasharray: none; stroke-linecap: butt; stroke-dashoffset: 0; stroke-linejoin: miter; stroke-miterlimit: 4; fill: rgb(230,230,230); fill-rule: nonzero; opacity: 1;" vector-effect="non-scaling-stroke"  transform=" translate(-616.84, -532.6)" d="M 606.96985 555.70717 C 606.96985 555.70717 596.24281 529.303 628.42311 509.5 Z" stroke-linecap="round" />
</g>
<g transform="matrix(1.95 0 0 1.99 904.62 755.58)"  >
<path style="stroke: none; stroke-width: 1; stroke-dasharray: none; stroke-linecap: butt; stroke-dashoffset: 0; stroke-linejoin: miter; stroke-miterlimit: 4; fill: rgb(230,230,230); fill-rule: nonzero; opacity: 1;" vector-effect="non-scaling-stroke"  transform=" translate(-592.1, -545.9)" d="M 606.39454 555.22685 C 606.39454 555.22685 603.12254 536.4071700000001 577.79581 536.5686900000001 Z" stroke-linecap="round" />
</g>
<g transform="matrix(1.95 0 0 1.99 924.58 791.7)"  >
<path style="stroke: none; stroke-width: 1; stroke-dasharray: none; stroke-linecap: butt; stroke-dashoffset: 0; stroke-linejoin: miter; stroke-miterlimit: 4; fill: rgb(240,240,240); fill-rule: nonzero; opacity: 1;" vector-effect="non-scaling-stroke"  transform=" translate(-602.35, -564)" d="M 624.34007 578.33987 L 580.36 578.33987 C 578.6385131985647 578.3398815531177 577.0679878094973 577.3574131131465 576.3149 575.80939 L 566.7393999999999 556.12639 C 566.0611621995758 554.732267230341 566.148616646653 553.0871417485691 566.9708366310964 551.7727829284642 C 567.7930566155399 550.4584241083592 569.2341501005498 549.6600910334143 570.7845 549.6601 L 633.9155 549.6601 C 635.4658379262136 549.660093907504 636.9069200537683 550.458419162502 637.7291382577733 551.7727649733511 C 638.5513564617784 553.0871107842 638.6388202843514 554.7322220238632 637.9606 556.12634 L 628.3851 575.80934 C 627.6320374366604 577.3573598591263 626.0615428310231 578.3398454561191 624.34007 578.33987 Z" stroke-linecap="round" />
</g>
<g transform="matrix(1.14 0 0 1.99 589.78 820.75)"  >
<path style="stroke: none; stroke-width: 1; stroke-dasharray: none; stroke-linecap: butt; stroke-dashoffset: 0; stroke-linejoin: miter; stroke-miterlimit: 4; fill: rgb(63,61,86); fill-rule: nonzero; opacity: 1;" vector-effect="non-scaling-stroke"  transform=" translate(-600, -578.5)" d="M 1000.5 579.5 L 199.5 579.5 C 198.9477152501692 579.5 198.5 579.0522847498308 198.5 578.5 C 198.5 577.9477152501692 198.9477152501692 577.5 199.5 577.5 L 1000.5 577.5 C 1001.0522847498308 577.5 1001.5 577.9477152501692 1001.5 578.5 C 1001.5 579.0522847498308 1001.0522847498308 579.5 1000.5 579.5 Z" stroke-linecap="round" />
</g>
<g transform="matrix(1.95 0 0 1.99 544.43 659.99)"  >
<polygon style="stroke: none; stroke-width: 1; stroke-dasharray: none; stroke-linecap: butt; stroke-dashoffset: 0; stroke-linejoin: miter; stroke-miterlimit: 4; fill: rgb(108,99,255); fill-rule: nonzero; opacity: 1;" vector-effect="non-scaling-stroke"  points="-42.42,23.17 -61.85,-50.32 -64.1,-58.8 -61.99,-60.76 -25.77,-78.7 25.99,-77.41 56.38,-61.81 56.54,-50.32 58.04,53.28 64.1,78.7 -47.07,78.7 -38.44,38.21 -42.42,23.17 " />
</g>
<g transform="matrix(1.95 0 0 1.99 675.52 676.9)"  >
<path style="stroke: none; stroke-width: 1; stroke-dasharray: none; stroke-linecap: butt; stroke-dashoffset: 0; stroke-linejoin: miter; stroke-miterlimit: 4; fill: rgb(108,99,255); fill-rule: nonzero; opacity: 1;" vector-effect="non-scaling-stroke"  transform=" translate(-474.94, -506.7)" d="M 493.42866 576.96 L 464.45528 576.96 L 456.45594 519.20046 L 458.5496 447.94232 L 458.83835 438.24805 L 464.36906999999997 436.44356 C 468.53759197226634 439.48803276828556 471.9835960436164 443.4141425905497 474.46169999999995 447.94232 C 478.0162399999999 454.12916 480.96888999999993 462.99544 480.23463999999996 474.91607 C 480.23463999999996 474.91607 480.89107999999993 488.99267 480.26590999999996 498.36669 C 479.83642 504.77229 487.31206 545.26023 493.42866 576.96 Z" stroke-linecap="round" />
</g>
<g transform="matrix(1.95 0 0 1.99 421.66 678.4)"  >
<path style="stroke: none; stroke-width: 1; stroke-dasharray: none; stroke-linecap: butt; stroke-dashoffset: 0; stroke-linejoin: miter; stroke-miterlimit: 4; fill: rgb(108,99,255); fill-rule: nonzero; opacity: 1;" vector-effect="non-scaling-stroke"  transform=" translate(-345.12, -507.45)" d="M 365.67647 520.69249 L 365.57501 521.42679 L 357.88801 576.96002 L 324.57134 576.96002 C 327.24287000000004 545.49457 330.38318000000004 506.15502 329.96134 499.85094 C 329.33655 490.48474999999996 329.99261 476.40027999999995 329.99261 476.40027999999995 C 329.19581 463.48759999999993 332.73471 454.17608999999993 336.66382 447.94233999999994 C 338.64057022973975 444.7734248278037 341.0755661087154 441.9146113414889 343.88962 439.45886999999993 C 344.5137915567772 438.9110357969229 345.1712283870346 438.40230583080853 345.85817 437.93558999999993 L 351.3889 439.73225999999994 L 352.83414 447.94233999999994 Z" stroke-linecap="round" />
</g>
<g transform="matrix(1.95 0 0 1.99 539.46 406.57)"  >
<path style="stroke: none; stroke-width: 1; stroke-dasharray: none; stroke-linecap: butt; stroke-dashoffset: 0; stroke-linejoin: miter; stroke-miterlimit: 4; fill: rgb(255,183,183); fill-rule: nonzero; opacity: 1;" vector-effect="non-scaling-stroke"  transform=" translate(-405.4, -371.27)" d="M 369.51681 371.26632 C 369.5167989543081 391.0820206815494 385.58058931844687 407.14582895429487 405.3962899999963 407.1458399999889 C 425.2119906815457 407.14585104568283 441.27579895429284 391.0820606815457 441.27580999998884 371.26635999999627 C 441.2758210456849 351.45065931844687 425.21203068154944 335.3868510456981 405.39633000000003 335.38684 L 405.39633000000003 335.38684 C 385.6300054837657 335.33748142977794 369.56621784206664 351.32123550692063 369.51685000000003 371.08756 Q 369.51662 371.17695 369.51681 371.26632 Z" stroke-linecap="round" />
</g>
<g transform="matrix(1.95 0 0 1.99 546.21 692.41)"  >
<path style="stroke: none; stroke-width: 1; stroke-dasharray: none; stroke-linecap: butt; stroke-dashoffset: 0; stroke-linejoin: miter; stroke-miterlimit: 4; fill: rgb(63,61,86); fill-rule: nonzero; opacity: 1;" vector-effect="non-scaling-stroke"  transform=" translate(-409, -514.45)" d="M 520 571.23819 L 520 571.23819 C 519.9999944771575 575.502829521695 516.5428195216986 578.9600000000036 512.27818 578.96 L 305.72187 578.96 C 301.45720838690494 578.9600055228568 298.0000110456813 575.5028216130844 298 571.23816 L 298 571.23816 C 298 566.9735165730616 301.4571765730616 563.51634 305.72182 563.51634 L 308.01443 563.51634 C 307.88324560562876 563.056363761495 307.81498479423425 562.5807347262163 307.81151 562.10243 L 307.81151 456.64865 C 307.81151 452.94485725936227 310.81402725936226 449.94234 314.51782 449.94234 L 503.48237 449.94234 C 507.1860578065353 449.94234 510.18849 452.9447721934647 510.18849 456.64846 L 510.18849 562.10241 C 510.1889832838393 562.5810042333244 510.12064373078994 563.0571819262674 509.98557 563.51632 L 512.27813 563.51632 C 514.3260972563974 563.51632 516.2901851057945 564.3298718249125 517.738316640441 565.7780033595591 C 519.1864481750875 567.2261348942055 520 569.1902227436027 520 571.23819 Z" stroke-linecap="round" />
</g>
<g transform="matrix(1.95 0 0 1.99 554.41 660.35)"  >
<path style="stroke: none; stroke-width: 1; stroke-dasharray: none; stroke-linecap: butt; stroke-dashoffset: 0; stroke-linejoin: miter; stroke-miterlimit: 4; fill: rgb(255,255,255); fill-rule: nonzero; opacity: 1;" vector-effect="non-scaling-stroke"  transform=" translate(-413, -498.23)" d="M 413.00049 510.1709 C 406.40829582852547 510.17089999866744 401.0642541843631 504.82689416971795 401.0642100026809 498.2346999983915 C 401.0641658209987 491.64250582706495 406.4081358323348 486.2984283657694 413.00033000321713 486.29834000107235 C 419.5925241740994 486.29825163637537 424.93663745228827 491.642185829858 424.93677 498.23438000000004 C 424.9294404947253 504.8236059115455 419.5897157628424 510.1634380080291 413.00049 510.1709 Z M 413.00049 488.29834 C 408.98161440603855 488.29834000159565 405.3584684419277 490.71926719898 403.82053749389917 494.4322349390547 C 402.28260654587064 498.1452026791294 403.1327638077279 502.41899581899935 405.9745780332185 505.26072996341503 C 408.8163922587092 508.10246410783077 413.0902093542775 508.95250093404263 416.8031337540496 507.4144653553528 C 420.5160581538217 505.87642977666286 422.9368832501466 502.2532155923658 422.93677 498.23434 C 422.9303884703008 492.7493749213841 418.48545525626923 488.3045669636155 413.00049 488.29834 Z" stroke-linecap="round" />
</g>
<g transform="matrix(1.95 0 0 1.99 546.6 652.34)"  >
<circle style="stroke: none; stroke-width: 1; stroke-dasharray: none; stroke-linecap: butt; stroke-dashoffset: 0; stroke-linejoin: miter; stroke-miterlimit: 4; fill: rgb(255,255,255); fill-rule: nonzero; opacity: 1;" vector-effect="non-scaling-stroke"  cx="0" cy="0" r="10.93635" />
</g>
<g transform="matrix(1.95 0 0 1.99 539.38 362.13)"  >
<path style="stroke: none; stroke-width: 1; stroke-dasharray: none; stroke-linecap: butt; stroke-dashoffset: 0; stroke-linejoin: miter; stroke-miterlimit: 4; fill: rgb(47,46,65); fill-rule: nonzero; opacity: 1;" vector-effect="non-scaling-stroke"  transform=" translate(-405.37, -349)" d="M 446.03857 341.46228 C 443.14625667897656 339.22889152713265 440.7950835858166 336.37174729417615 439.16016 333.10364000000004 C 438.5764164369346 331.8614816772738 437.771273212421 330.7360534268707 436.78416000000004 329.78247000000005 L 430 335 L 434.146 327.77875 C 423.52734000000004 321.36017 402.79200000000003 324.76917 402.79200000000003 324.76917 C 381.22169 313.28308 373.30128 327.62097 370.54 336.71374999999995 C 369.4461876167374 340.0043069890438 367.5172871531419 342.9547496098616 364.94185000000004 345.27666999999997 C 359.62105 350.35015999999996 367.99996000000004 360.21867 367.99996000000004 360.21867 L 367.99996000000004 360.91612 L 370 374.5 C 370 374.5 372 365.5 377.27783 359.1756 C 380.60537999999997 355.18820999999997 386.02125 352.81743 388.53661999999997 352.86652 C 421 353.5 427.146 354.78546 427.146 354.78546 C 427.146 354.78546 432.64209 357.7381 435.06934 358.9784 C 442.91309 362.98651 441 377.5 441 377.5 L 446.86133 351.741 C 448.21436 345.49689 447.46289 342.632 446.03857 341.46228 Z" stroke-linecap="round" />
</g>
</svg>